<svg width="40" height="39" viewBox="0 0 40 39" fill="none" xmlns="http://www.w3.org/2000/svg">
<path d="M4.49295 18.25C3.23098 18.25 2.16667 17.8143 1.3 16.943C0.433333 16.0716 0 15.0049 0 13.743C0 12.481 0.435683 11.4167 1.30705 10.55C2.17842 9.68333 3.24508 9.25 4.50705 9.25C5.76902 9.25 6.83333 9.68568 7.7 10.557C8.56667 11.4284 9 12.4951 9 13.757C9 15.019 8.56432 16.0833 7.69295 16.95C6.82158 17.8167 5.75492 18.25 4.49295 18.25ZM13.743 9.75C12.481 9.75 11.4167 9.31432 10.55 8.44295C9.68333 7.57158 9.25 6.50492 9.25 5.24295C9.25 3.98098 9.68568 2.91667 10.557 2.05C11.4284 1.18333 12.4951 0.75 13.757 0.75C15.019 0.75 16.0833 1.18568 16.95 2.05705C17.8167 2.92842 18.25 3.99508 18.25 5.25705C18.25 6.51902 17.8143 7.58333 16.943 8.45C16.0716 9.31667 15.0049 9.75 13.743 9.75ZM26.243 9.75C24.981 9.75 23.9167 9.31432 23.05 8.44295C22.1833 7.57158 21.75 6.50492 21.75 5.24295C21.75 3.98098 22.1857 2.91667 23.057 2.05C23.9284 1.18333 24.9951 0.75 26.257 0.75C27.519 0.75 28.5833 1.18568 29.45 2.05705C30.3167 2.92842 30.75 3.99508 30.75 5.25705C30.75 6.51902 30.3143 7.58333 29.443 8.45C28.5716 9.31667 27.5049 9.75 26.243 9.75ZM35.493 18.25C34.231 18.25 33.1667 17.8143 32.3 16.943C31.4333 16.0716 31 15.0049 31 13.743C31 12.481 31.4357 11.4167 32.3071 10.55C33.1784 9.68333 34.2451 9.25 35.5071 9.25C36.769 9.25 37.8333 9.68568 38.7 10.557C39.5667 11.4284 40 12.4951 40 13.757C40 15.019 39.5643 16.0833 38.693 16.95C37.8216 17.8167 36.7549 18.25 35.493 18.25ZM9.3 38.75C7.9 38.75 6.75 38.2246 5.85 37.1737C4.95 36.1228 4.5 34.8816 4.5 33.45C4.5 32.05 4.925 30.8083 5.775 29.725C6.625 28.6417 7.53333 27.6 8.5 26.6C9.23333 25.8667 9.91667 25.0917 10.55 24.275C11.1833 23.4583 11.7833 22.6167 12.35 21.75C13.3167 20.2833 14.4 18.9167 15.6 17.65C16.8 16.3833 18.2667 15.75 20 15.75C21.7333 15.75 23.2083 16.3833 24.425 17.65C25.6417 18.9167 26.7333 20.3 27.7 21.8C28.2667 22.6667 28.8583 23.5 29.475 24.3C30.0917 25.1 30.7667 25.8667 31.5 26.6C32.4667 27.6 33.375 28.6417 34.225 29.725C35.075 30.8083 35.5 32.05 35.5 33.45C35.5 34.8816 35.05 36.1228 34.15 37.1737C33.25 38.2246 32.1 38.75 30.7 38.75C28.9 38.75 27.1167 38.6 25.35 38.3C23.5833 38 21.8 37.85 20 37.85C18.2 37.85 16.4167 38 14.65 38.3C12.8833 38.6 11.1 38.75 9.3 38.75Z" fill="#ADA7FF"/>
</svg>
